# AST/ASF file generated using VICON BodyLanguage
# -----------------------------------------------
:version 1.10
:name VICON
:units
  mass 1.0
  length 0.45
  angle deg
:documentation
   .ast/.asf automatically generated from VICON data using
   VICON BodyBuilder and BodyLanguage model FoxedUp or BRILLIANT.MOD
:root
   order TX TY TZ RX RY RZ
   axis XYZ
   position 0 0 0  
   orientation 0 0 0 
:bonedata
  begin
     id 1 
     name lhipjoint
     direction 0.693937 -0.600361 0.397515 
     length 2.37164 
     axis 0 0 0  XYZ
  end
  begin
     id 2 
     name lfemur
     direction 0.34202 -0.939693 0  
     length 6.18497  
     axis 0 0 20  XYZ
    dof rx ry rz
    limits (-160.0 20.0)
           (-70.0 70.0)
           (-60.0 70.0)
  end
  begin
     id 3 
     name ltibia
     direction 0.34202 -0.939693 0   
     length 6.91601   
     axis 0 0 20   XYZ
    dof rx
    limits (-10.0 170.0)
  end
  begin
     id 4 
     name lfoot
     direction 0.0978718 -0.2689 0.958182   
     length 1.81453   
     axis -90 7.62852e-016 20   XYZ
    dof rx rz
    limits (-45.0 90.0)
           (-70.0 20.0)
  end
  begin
     id 5 
     name ltoes
     direction 1.53569e-011 -4.21951e-011 1   
     length 0.912052   
     axis -90 7.62852e-016 20   XYZ
    dof rx
    limits (-90.0 20.0)
  end
  begin
     id 6 
     name rhipjoint
     direction -0.643996 -0.637876 0.422354   
     length 2.23216  
     axis 0 0 0  XYZ 
  end
  begin
     id 7 
     name rfemur
     direction -0.34202 -0.939693 0   
     length 6.15404   
     axis 0 0 -20   XYZ
    dof rx ry rz
    limits (-160.0 20.0)
           (-70.0 70.0)
           (-70.0 60.0)
  end
  begin
     id 8 
     name rtibia
     direction -0.34202 -0.939693 0   
     length 6.86744   
     axis 0 0 -20   XYZ
    dof rx
    limits (-10.0 170.0)
 end
 begin
     id 9 
     name rfoot
     direction -0.118701 -0.326127 0.937844   
     length 1.9243  
     axis -90 -7.62852e-016 -20   XYZ
    dof rx rz
    limits (-45.0 90.0)
           (-20.0 70.0)
  end
  begin
     id 10 
     name rtoes
     direction -1.5356e-011 -4.2181e-011 1   
     length 0.958865   
     axis -90 -7.62852e-016 -20   XYZ
    dof rx
    limits (-90.0 20.0)
  end
  begin
     id 11 
     name lowerback
     direction 0.0310826 0.968686 -0.246334   
     length 2.00021   
     axis 0 0 0   XYZ
    dof rx ry rz
    limits (-20.0 45.0)
           (-30.0 30.0)
           (-30.0 30.0)
  end
  begin
     id 12 
     name upperback
     direction -0.0152834 0.999474 -0.0286152   
     length 2.03728   
     axis 0 0 0   XYZ
    dof rx ry rz
    limits (-20.0 45.0)
           (-30.0 30.0)
           (-30.0 30.0)
  end
  begin
     id 13 
     name thorax
     direction -0.0323701 0.996236 0.0804149   
     length 2.16   
     axis 0 0 0   XYZ
    dof rx ry rz
    limits (-20.0 45.0)
           (-30.0 30.0)
           (-30.0 30.0)
  end
  begin
     id 14 
     name lowerneck
     direction 0.0307935 0.982251 0.185027   
     length 1.43558   
     axis 0 0 0   XYZ
    dof rx ry rz
    limits (-20.0 45.0)
           (-30.0 30.0)
           (-30.0 30.0)
  end
  begin
     id 15 
     name upperneck
     direction -0.0927153 0.994775 0.0427454   
     length 1.44603   
     axis 0 0 0   XYZ
    dof rx ry rz
    limits (-20.0 45.0)
           (-30.0 30.0)
           (-30.0 30.0)
  end
  begin
     id 16
     name head
     direction -0.0341265 0.999406 -0.00472033  
     length 1.45931  
     axis 0 0 0   XYZ
    dof rx ry rz
    limits (-20.0 45.0)
           (-30.0 30.0)
           (-30.0 30.0)
  end
  begin
     id 17 
     name lclavicle
     direction 0.820755 0.555306 -0.134151  
     length 2.66075  
     axis 0 0 0   XYZ
    dof ry rz
    limits (-20.0 10.0)
           (0.0 20.0)
  end
  begin
     id 18 
     name lhumerus
     direction 1 -4.48971e-011 5.24853e-027   
     length 5.0546   
     axis -180 -30 -90   XYZ
    dof rx ry rz
    limits (-60.0 90.0)
           (-90.0 90.0)
           (-90.0 90.0)
  end
  begin
     id 19
     name lradius
     direction 1 -4.48971e-011 2.76575e-028   
     length 3.39013   
     axis -180 -30 -90   XYZ
    dof rx
    limits (-10.0 170.0)
  end
  begin
     id 20
     name lwrist
     direction 1 -4.48939e-011 -2.27826e-027   
     length 1.69507   
     axis 2.17013e-015 90 90   XYZ
    dof ry
    limits (-180.0 0.0)
 end
  begin
     id 21 
     name lhand
     direction 1 -4.49009e-011 -4.55652e-027   
     length 0.572425   
     axis 2.90745e-015 90 90   XYZ
    dof rx rz
    limits (-90.0 90.0)
           (-45.0 45.0)
  end
  begin
     id 22 
     name lfingers
     direction 1 -4.48955e-011 -9.11303e-027   
     length 0.461504   
     axis 5.81489e-015 90 90   XYZ
    dof rx
    limits (0.0 90.0)
  end
  begin
     id 23
     name lthumb
     direction 0.707107 -6.34929e-011 0.707107   
     length 0.66263   
     axis -90 45 2.85299e-015   XYZ
    dof rx rz
    limits (-45.0 45.0)
           (-45.0 45.0)
  end
  begin
     id 24 
     name rclavicle
     direction -0.754477 0.632921 -0.173712   
     length 2.73081  
     axis 0 0 0   XYZ 
    dof ry rz
    limits (-10.0 20.0)
           (-20.0 0.0)
  end
  begin
     id 25 
     name rhumerus
     direction -1 -4.48969e-011 5.1496e-027  
     length 5.0701   
     axis -180 30 90   XYZ
    dof rx ry rz
    limits (-90.0 60.0)
           (-90.0 90.0)
           (-90.0 90.0)
  end
  begin
     id 26 
     name rradius
     direction -1 -4.48967e-011 -7.15624e-028   
     length 3.14957   
     axis -180 30 90   XYZ
    dof rx
    limits (-10.0 170.0)
  end
  begin
     id 27 
     name rwrist
     direction -1 -4.48938e-011 -2.27826e-027   
     length 1.57479   
     axis 2.17013e-015 -90 -90   XYZ
    dof ry
    limits (-180.0 0.0)
  end
  begin
     id 28
     name rhand
     direction -1 -4.49008e-011 -4.55652e-027   
     length 0.718191   
     axis 2.90745e-015 -90 -90   XYZ
    dof rx rz
    limits (-90.0 90.0)
           (-45.0 45.0)
  end
  begin
     id 29
     name rfingers
     direction -1 -4.48953e-011 -9.11303e-027   
     length 0.579024   
     axis 5.81489e-015 -90 -90   XYZ
    dof rx
    limits (0.0 90.0)
  end
  begin
     id 30
     name rthumb
     direction -0.707107 -6.34937e-011 0.707107   
     length 0.831366   
     axis -90 -45 -2.85299e-015   XYZ
    dof rx rz
    limits (-45.0 45.0)
           (-45.0 45.0)
  end
:hierarchy
  begin
    root lhipjoint rhipjoint lowerback
    lhipjoint lfemur
    lfemur ltibia
    ltibia lfoot
    lfoot ltoes
    rhipjoint rfemur
    rfemur rtibia
    rtibia rfoot
    rfoot rtoes
    lowerback upperback
    upperback thorax
    thorax lowerneck lclavicle rclavicle
    lowerneck upperneck
    upperneck head
    lclavicle lhumerus
    lhumerus lradius
    lradius lwrist
    lwrist lhand lthumb
    lhand lfingers
    rclavicle rhumerus
    rhumerus rradius
    rradius rwrist
    rwrist rhand rthumb
    rhand rfingers
  end

#!OML:ASF H:\Male1\Project 1\Capture day 1\Session 1\Male1.ASF
:FULLY-SPECIFIED
:DEGREES
170
root -20.3561 15.0706 0.246403 -62.4807 -85.2642 56.7663
lowerback 5.18356 0.514165 -8.59263
upperback 5.26324 0.25178 -2.8371
thorax 2.54189 -0.18752 1.8518
lowerneck -12.252 0.106134 3.5567
upperneck 9.67194 -0.765895 2.08905
head 4.9109 -0.115506 0.0143253
rclavicle 2.08724e-015 4.05521e-014
rhumerus -31.6617 -0.140926 -90.0955
rradius 31.7656
rwrist -17.1592
rhand -17.0136 -0.965805
rfingers 7.12502
rthumb 9.22225 -30.7441
lclavicle 2.08724e-015 4.05521e-014
lhumerus -23.1068 -9.69891 89.4804
lradius 30.6526
lwrist -0.67705
lhand -23.1393 13.2592
lfingers 7.12502
lthumb 3.30858 43.2132
rfemur -14.5602 11.7671 17.6356
rtibia 34.2219
rfoot -19.6263 -25.8428
rtoes -5.61674
lfemur 9.61347 -7.98377 -28.706
ltibia 23.0046
lfoot -21.3874 18.119
ltoes -8.0032
171
root -20.2305 15.097 0.282753 -65.1853 -86.0212 59.5771
lowerback 5.37527 0.629753 -8.25976
upperback 5.37789 0.396374 -2.80048
thorax 2.5387 -0.110361 1.70032
lowerneck -12.1656 0.249811 3.3983
upperneck 9.42293 -0.539085 2.14694
head 4.82097 -0.0113202 0.0752658
rclavicle -1.39149e-015 1.98785e-014
rhumerus -31.4468 0.056967 -90.3937
rradius 31.9176
rwrist -17.1142
rhand -16.9347 -0.933022
rfingers 7.12502
rthumb 9.29832 -30.708
lclavicle -1.39149e-015 1.98785e-014
lhumerus -22.7354 -10.8149 89.6413
lradius 31.1092
lwrist 0.293231
lhand -22.4848 13.9926
lfingers 7.12502
lthumb 3.94064 43.9359
rfemur -15.0035 12.1348 17.8356
rtibia 33.5221
rfoot -18.8934 -25.6442
rtoes -5.58274
lfemur 8.81818 -7.22928 -28.145
ltibia 23.2068
lfoot -21.7391 18.3331
ltoes -6.73368
172
root -20.0668 15.13 0.300513 -43.0434 -88.6699 37.9631
lowerback 5.67423 0.684204 -6.11262
upperback 5.25388 0.528522 -2.12175
thorax 2.21943 0.0358205 1.20838
lowerneck -12.1179 0.449324 3.31901
upperneck 9.20247 -0.2346 2.05044
head 4.74577 0.125378 0.0810489
rclavicle 2.5842e-015 5.56597e-015
rhumerus -31.1816 0.376341 -90.6831
rradius 32.0366
rwrist -17.0879
rhand -16.8276 -1.10939
rfingers 7.12502
rthumb 9.40166 -30.8797
lclavicle 2.5842e-015 5.56597e-015
lhumerus -22.4259 -11.8659 89.761
lradius 31.5427
lwrist 1.10993
lhand -21.1536 14.9223
lfingers 7.12502
lthumb 5.22603 44.8379
rfemur -15.7719 13.4537 20.4393
rtibia 32.3482
rfoot -17.9891 -26.3315
rtoes -5.51508
lfemur 7.07592 -6.45675 -25.0023
ltibia 23.9775
lfoot -22.0835 18.1069
ltoes -5.46258
173
root -19.9326 15.144 0.33103 -46.1109 -88.9949 41.0603
lowerback 6.07128 0.725774 -6.17469
upperback 5.33981 0.542311 -2.20434
thorax 2.08776 0.0393879 1.15436
lowerneck -12.0688 0.63756 3.30284
upperneck 9.16231 0.036529 1.95752
head 4.72643 0.25135 0.0751316
rclavicle -2.98177e-015 4.21423e-014
rhumerus -30.9888 0.406574 -90.9674
rradius 32.1321
rwrist -16.8443
rhand -16.6241 -1.33259
rfingers 7.12502
rthumb 9.59801 -31.094
lclavicle -2.98177e-015 4.21423e-014
lhumerus -22.2022 -12.6816 89.7772
lradius 31.9139
lwrist 1.50968
lhand -20.5597 15.0568
lfingers 7.12502
lthumb 5.79947 44.9574
rfemur -15.8197 13.6738 20.2667
rtibia 31.264
rfoot -17.2131 -26.1815
rtoes -5.29465
lfemur 6.24377 -6.17137 -24.8137
ltibia 24.4626
lfoot -22.3489 17.905
ltoes -4.62191
174
root -19.8043 15.1612 0.362535 -28.385 -89.6176 23.4672
lowerback 6.30919 0.782756 -5.7804
upperback 5.34039 0.612898 -2.23684
thorax 1.95231 0.089244 0.896904
lowerneck -11.9159 0.808081 3.31079
upperneck 9.19243 0.28374 1.84884
head 4.71197 0.36594 0.0582423
rclavicle -1.78906e-015 3.18055e-015
rhumerus -30.9856 0.374099 -91.3065
rradius 32.1799
rwrist -16.9297
rhand -16.7093 -1.06617
rfingers 7.12502
rthumb 9.51581 -30.8313
lclavicle -1.78906e-015 3.18055e-015
lhumerus -22.0935 -13.5631 89.7562
lradius 32.1555
lwrist 1.777
lhand -20.4664 15.0309
lfingers 7.12502
lthumb 5.88958 44.929
rfemur -15.9505 14.0236 20.4309
rtibia 30.2496
rfoot -16.7222 -25.9445
rtoes -5.03669
lfemur 5.42442 -6.05565 -24.2626
ltibia 24.8729
lfoot -22.6923 17.7272
ltoes -3.78255
175
root -19.6795 15.1767 0.389681 -58.8608 -90.277 54.169
lowerback 6.35436 0.84737 -5.56854
upperback 5.32959 0.702934 -2.27452
thorax 1.91193 0.141671 0.735599
lowerneck -11.7769 1.01857 3.21984
upperneck 9.19785 0.58715 1.85561
head 4.69222 0.511528 0.0970147
rclavicle 1.98785e-016 -3.18055e-015
rhumerus -31.0106 0.477932 -91.6559
rradius 32.2581
rwrist -17.0915
rhand -16.8334 -0.860196
rfingers 7.12502
rthumb 9.39606 -30.6308
lclavicle 1.98785e-016 -3.18055e-015
lhumerus -22.0198 -14.5497 89.6877
lradius 32.3048
lwrist 2.05319
lhand -20.3696 15.1571
lfingers 7.12502
lthumb 5.98301 45.0527
rfemur -16.3957 14.3688 20.4618
rtibia 29.8104
rfoot -16.5516 -25.3586
rtoes -6.0921
lfemur 4.91361 -6.06359 -23.8862
ltibia 24.5345
lfoot -22.6228 17.9387
ltoes -3.36861
176
root -19.5579 15.1934 0.412377 -19.9473 -90.6861 15.4613
lowerback 6.31623 0.913713 -5.78923
upperback 5.34132 0.780104 -2.40442
thorax 1.94181 0.172564 0.720758
lowerneck -11.6819 1.25333 3.03574
upperneck 9.2539 0.922717 1.96451
head 4.69434 0.676954 0.184981
rclavicle 5.1684e-015 -3.81667e-014
rhumerus -31.0183 0.60135 -91.9777
rradius 32.3324
rwrist -17.1621
rhand -16.8523 -0.691972
rfingers 7.12502
rthumb 9.37784 -30.4634
lclavicle 5.1684e-015 -3.81667e-014
lhumerus -21.9668 -15.4328 89.5851
lradius 32.2882
lwrist 2.12898
lhand -20.4029 15.173
lfingers 7.12502
lthumb 5.95085 45.0694
rfemur -16.8604 14.6676 20.0732
rtibia 29.5943
rfoot -16.4011 -24.6114
rtoes -9.08522
lfemur 4.54209 -6.1056 -23.9952
ltibia 23.9707
lfoot -22.4438 18.3408
ltoes -2.70539
177
root -19.4373 15.2196 0.433166 -7.44913 -91.0929 3.10299
lowerback 6.33726 0.980831 -6.02
upperback 5.34418 0.851782 -2.55866
thorax 1.93005 0.201452 0.685926
lowerneck -11.5212 1.46834 3.10372
upperneck 9.30258 1.23738 1.70862
head 4.68595 0.818135 0.117146
rclavicle -5.96354e-016 2.06736e-014
rhumerus -31.0618 0.561404 -92.2444
rradius 32.3761
rwrist -17.0741
rhand -16.7912 -0.55971
rfingers 7.12502
rthumb 9.43682 -30.3284
lclavicle -5.96354e-016 2.06736e-014
lhumerus -21.9644 -16.2909 89.4972
lradius 32.1207
lwrist 2.03824
lhand -20.192 15.3364
lfingers 7.12502
lthumb 6.15447 45.227
rfemur -17.2962 14.7747 19.672
rtibia 29.6315
rfoot -16.1506 -23.9059
rtoes -13.7014
lfemur 4.21046 -6.14626 -24.222
ltibia 23.4541
lfoot -22.2498 18.8129
ltoes -1.89782
178
root -19.3191 15.2569 0.452612 0.194293 -91.4223 -4.456
lowerback 6.37502 1.06248 -6.21213
upperback 5.37386 0.942793 -2.72511
thorax 1.93629 0.239767 0.615634
lowerneck -11.2414 1.6414 3.27708
upperneck 9.15081 1.50831 1.28817
head 4.59858 0.928653 -0.0239369
rclavicle -1.2921e-014 -2.8625e-014
rhumerus -31.0877 0.427277 -92.4506
rradius 32.3937
rwrist -16.9752
rhand -16.7043 -0.549918
rfingers 7.12502
rthumb 9.52069 -30.3148
lclavicle -1.2921e-014 -2.8625e-014
lhumerus -21.9284 -17.0961 89.4553
lradius 31.8247
lwrist 1.79461
lhand -19.9855 15.3418
lfingers 7.12502
lthumb 6.35383 45.2265
rfemur -17.6932 14.5596 19.2832
rtibia 29.8775
rfoot -15.7518 -23.777
rtoes -19.4384
lfemur 3.85684 -6.31752 -24.5387
ltibia 23.0856
lfoot -22.0545 19.3871
ltoes -0.887039
179
root -19.1972 15.2623 0.46657 1.50273 -91.6923 -5.73544
lowerback 6.43033 1.12826 -6.30227
upperback 5.4186 1.01712 -2.84047
thorax 1.94942 0.271909 0.541961
lowerneck -11.1226 1.7879 3.1642
upperneck 9.1487 1.73351 1.2477
head 4.57946 1.03264 -0.00304055
rclavicle -9.93923e-016 -1.01778e-013
rhumerus -31.0777 0.366784 -92.6347
rradius 32.3098
rwrist -16.9331
rhand -16.6991 -0.661318
rfingers 7.12502
rthumb 9.52571 -30.426
lclavicle -9.93923e-016 -1.01778e-013
lhumerus -21.9032 -17.7284 89.4063
lradius 31.397
lwrist 1.25352
lhand -20.0165 15.1211
lfingers 7.12502
lthumb 6.32386 45.0067
rfemur -17.4008 13.9863 19.1863
rtibia 30.2765
rfoot -18.028 -22.0009
rtoes -17.6855
lfemur 3.38402 -6.58919 -24.7166
ltibia 23.0143
lfoot -22.0222 19.8428
ltoes 0.801278
